<?xml version="1.0" encoding="utf-8"?>
<!-- Generator: Adobe Illustrator 16.0.0, SVG Export Plug-In . SVG Version: 6.00 Build 0)  -->
<!DOCTYPE svg PUBLIC "-//W3C//DTD SVG 1.0//EN" "http://www.w3.org/TR/2001/REC-SVG-20010904/DTD/svg10.dtd">
<svg version="1.0" id="Layer_1" xmlns="http://www.w3.org/2000/svg" xmlns:xlink="http://www.w3.org/1999/xlink" x="0px" y="0px"
	 width="75px" height="31.7px" viewBox="0 0 75 31.7" enable-background="new 0 0 75 31.7" xml:space="preserve">
<path fill="#FFFFFF" d="M35.9,12.1l3.7-6.2v25.7h-3.7V12.1z M15.3,24.9L4,6.1H0l15.3,25.5l0,0l0,0L30.6,6.1h-4L15.3,24.9z M35.9,6.2
	L39.6,0h-3.7V6.2z M75,18.799c0,7.101-6.5,12.9-14.5,12.9S46,25.9,46,18.799C46,11.7,52.5,5.9,60.5,5.9S75,11.7,75,18.799z
	 M71.5,18.799c0-5.199-4.9-9.399-11-9.399s-11,4.2-11,9.399c0,5.201,4.9,9.4,11,9.4S71.5,24,71.5,18.799z"/>
</svg>
