<?xml version="1.0" encoding="utf-8"?>
<!-- Generator: Adobe Illustrator 16.0.0, SVG Export Plug-In . SVG Version: 6.00 Build 0)  -->
<!DOCTYPE svg PUBLIC "-//W3C//DTD SVG 1.0//EN" "http://www.w3.org/TR/2001/REC-SVG-20010904/DTD/svg10.dtd">
<svg version="1.0" id="Layer_1" xmlns="http://www.w3.org/2000/svg" xmlns:xlink="http://www.w3.org/1999/xlink" x="0px" y="0px"
	 width="42px" height="41px" viewBox="0 0 42 41" enable-background="new 0 0 42 41" xml:space="preserve">
<path fill="#FFFFFF" d="M21.5,41C10.195,41,1,31.804,1,20.5S10.195,0,21.5,0C32.803,0,42,9.196,42,20.5S32.803,41,21.5,41z M21.5,1
	C10.748,1,2,9.748,2,20.5S10.748,40,21.5,40S41,31.252,41,20.5C40.999,9.747,32.252,1,21.5,1z"/>
<path fill="#FFFFFF" d="M13.367,11.661l16.971,16.971l-0.707,0.707l-16.97-16.971L13.367,11.661z"/>
<path fill="#FFFFFF" d="M30.338,12.368L13.367,29.339l-0.706-0.707l16.97-16.971L30.338,12.368z"/>
</svg>
