<?xml version="1.0" encoding="utf-8"?>
<!-- Generator: Adobe Illustrator 18.1.0, SVG Export Plug-In . SVG Version: 6.00 Build 0)  -->
<svg version="1.1" id="Layer_1" xmlns="http://www.w3.org/2000/svg" xmlns:xlink="http://www.w3.org/1999/xlink" x="0px" y="0px"
	 viewBox="0 0 104 61" enable-background="new 0 0 104 61" xml:space="preserve">
<path fill="#FFFFFF" d="M0.3,16.5h2v9.2h-2V16.5z M5.2,16.5H8l3.9,6.4h0v-6.4h2v9.2h-2.7l-4-6.6h0v6.6h-2V16.5z M16.9,16.5h6.2v1.9
	h-4.1v1.9h3.8v1.9h-3.8v3.6h-2V16.5z M19.7,0.5h3.6c0.5,0,0.9,0,1.3,0.1c0.4,0.1,0.8,0.2,1.1,0.5C26,1.3,26.3,1.6,26.5,2
	c0.2,0.4,0.3,0.8,0.3,1.3c0,0.6-0.2,1.2-0.5,1.7c-0.3,0.5-0.8,0.7-1.5,0.9l2.3,3.9h-2.4L22.8,6h-1v3.7h-2V0.5z M21.8,4.3H23
	c0.2,0,0.4,0,0.6,0c0.2,0,0.4-0.1,0.6-0.1c0.2-0.1,0.3-0.2,0.4-0.3c0.1-0.1,0.2-0.3,0.2-0.6c0-0.2,0-0.4-0.1-0.6
	c-0.1-0.1-0.2-0.2-0.4-0.3c-0.1-0.1-0.3-0.1-0.5-0.1c-0.2,0-0.4,0-0.6,0h-1.3V4.3z M24.9,21.1c0-0.7,0.1-1.4,0.4-2
	c0.2-0.6,0.6-1.1,1-1.5c0.4-0.4,1-0.7,1.6-1c0.6-0.2,1.3-0.3,2-0.3c0.7,0,1.4,0.1,2,0.3c0.6,0.2,1.1,0.5,1.6,1
	c0.4,0.4,0.8,0.9,1,1.5c0.2,0.6,0.4,1.3,0.4,2c0,0.7-0.1,1.4-0.4,2c-0.2,0.6-0.6,1.1-1,1.5c-0.4,0.4-1,0.7-1.6,1
	c-0.6,0.2-1.3,0.3-2,0.3c-0.7,0-1.4-0.1-2-0.3c-0.6-0.2-1.1-0.5-1.6-1c-0.4-0.4-0.8-0.9-1-1.5C25,22.5,24.9,21.9,24.9,21.1z
	 M27,21.1c0,0.4,0.1,0.8,0.2,1.2c0.1,0.4,0.3,0.7,0.6,0.9c0.3,0.3,0.6,0.5,0.9,0.6c0.4,0.1,0.7,0.2,1.2,0.2c0.4,0,0.8-0.1,1.2-0.2
	c0.4-0.1,0.7-0.4,0.9-0.6c0.3-0.3,0.4-0.6,0.6-0.9c0.1-0.4,0.2-0.8,0.2-1.2c0-0.4-0.1-0.8-0.2-1.2c-0.1-0.4-0.3-0.7-0.6-0.9
	c-0.3-0.3-0.6-0.5-0.9-0.6c-0.4-0.1-0.7-0.2-1.2-0.2c-0.4,0-0.8,0.1-1.2,0.2c-0.4,0.1-0.7,0.4-0.9,0.6c-0.3,0.3-0.4,0.6-0.6,0.9
	C27,20.3,27,20.7,27,21.1z M29.3,0.5h6.3v1.9h-4.2v1.7h4V6h-4v1.9h4.5v1.9h-6.5V0.5z M37.2,16.5h3.6c0.5,0,0.9,0,1.3,0.1
	c0.4,0.1,0.8,0.2,1.1,0.5c0.3,0.2,0.6,0.5,0.8,0.9c0.2,0.4,0.3,0.8,0.3,1.3c0,0.6-0.2,1.2-0.5,1.7c-0.3,0.5-0.8,0.7-1.5,0.9l2.3,3.9
	h-2.4L40.2,22h-1v3.7h-2V16.5z M48.3,9.7h-5.6c-0.7,0-1.4-0.1-2-0.3c-0.6-0.2-1.1-0.5-1.6-0.9c-0.4-0.4-0.8-0.9-1-1.5
	c-0.3-0.6-0.4-1.2-0.4-2c0-0.7,0.1-1.3,0.4-1.9c0.3-0.6,0.6-1.1,1-1.5c0.4-0.4,1-0.7,1.6-1c0.6-0.2,1.2-0.3,1.9-0.3
	c0.7,0,1.3,0.1,1.9,0.4c0.6,0.2,1.1,0.6,1.6,1s0.8,0.9,1,1.5c0.3,0.6,0.4,1.2,0.4,1.9c0,0.3,0,0.6-0.1,1c-0.1,0.3-0.2,0.6-0.3,0.9
	c-0.1,0.3-0.3,0.5-0.6,0.7c-0.2,0.2-0.5,0.4-0.8,0.5v0h2.6V9.7z M39.2,20.3h1.2c0.2,0,0.4,0,0.6,0c0.2,0,0.4-0.1,0.6-0.1
	c0.2-0.1,0.3-0.2,0.4-0.3c0.1-0.1,0.2-0.3,0.2-0.6c0-0.2,0-0.4-0.1-0.6c-0.1-0.1-0.2-0.2-0.4-0.3c-0.1-0.1-0.3-0.1-0.5-0.1
	c-0.2,0-0.4,0-0.6,0h-1.3V20.3z M39.9,5c0,0.4,0.1,0.8,0.2,1.1c0.1,0.3,0.3,0.6,0.6,0.9c0.3,0.3,0.6,0.5,0.9,0.6
	c0.3,0.1,0.7,0.2,1.1,0.2s0.8-0.1,1.1-0.2c0.3-0.1,0.6-0.3,0.9-0.6c0.3-0.3,0.5-0.6,0.6-0.9c0.1-0.3,0.2-0.7,0.2-1.1
	c0-0.4-0.1-0.8-0.2-1.1c-0.1-0.3-0.3-0.6-0.6-0.9c-0.3-0.3-0.6-0.5-0.9-0.6c-0.3-0.1-0.7-0.2-1.1-0.2s-0.8,0.1-1.1,0.2
	C41.3,2.5,41,2.7,40.7,3c-0.3,0.3-0.5,0.6-0.6,0.9C39.9,4.2,39.9,4.6,39.9,5z M46.7,16.5h3.1l2.1,6h0l2.1-6h3.1v9.2h-2v-7.1h0
	l-2.4,7.1h-1.5l-2.3-7.1h0v7.1h-2V16.5z M58,6.2c0,0.5-0.1,1-0.2,1.5c-0.2,0.5-0.4,0.9-0.7,1.2c-0.3,0.3-0.7,0.6-1.2,0.8
	c-0.5,0.2-1,0.3-1.7,0.3c-0.6,0-1.2-0.1-1.7-0.3c-0.5-0.2-0.9-0.5-1.2-0.8c-0.3-0.3-0.6-0.7-0.7-1.2c-0.2-0.5-0.2-1-0.2-1.5V0.5h2
	v5.6c0,0.3,0,0.6,0.1,0.8c0.1,0.2,0.2,0.5,0.4,0.6c0.2,0.2,0.4,0.3,0.6,0.4c0.2,0.1,0.5,0.1,0.7,0.1c0.3,0,0.5,0,0.7-0.1
	c0.2-0.1,0.4-0.2,0.6-0.4c0.2-0.2,0.3-0.4,0.4-0.6C56,6.6,56,6.4,56,6.1V0.5h2V6.2z M63,16.5h1.7l4,9.2h-2.3l-0.8-1.9h-3.6l-0.8,1.9
	h-2.2L63,16.5z M61,0.5h6.3v1.9H63v1.7h4V6h-4v1.9h4.5v1.9H61V0.5z M63.8,19.2l-1.1,2.9H65L63.8,19.2z M71.5,18.3h-2.6v-1.8h7.3v1.8
	h-2.6v7.4h-2V18.3z M74.6,2.8c-0.2-0.2-0.4-0.4-0.7-0.5c-0.3-0.1-0.5-0.1-0.8-0.1c-0.1,0-0.3,0-0.5,0.1c-0.2,0-0.3,0.1-0.4,0.2
	c-0.1,0.1-0.3,0.2-0.3,0.3c-0.1,0.1-0.1,0.3-0.1,0.4c0,0.3,0.1,0.5,0.3,0.6c0.2,0.1,0.5,0.3,0.8,0.4c0.3,0.1,0.7,0.2,1,0.3
	s0.7,0.3,1,0.4c0.3,0.2,0.6,0.4,0.8,0.8C75.9,6,76,6.4,76,6.9c0,0.5-0.1,1-0.3,1.3C75.6,8.6,75.3,9,75,9.2c-0.3,0.3-0.7,0.4-1.1,0.6
	C73.4,9.9,73,10,72.5,10c-0.6,0-1.2-0.1-1.7-0.3c-0.5-0.2-1-0.5-1.4-0.9l1.4-1.6c0.2,0.3,0.5,0.5,0.8,0.6c0.3,0.2,0.6,0.2,1,0.2
	c0.2,0,0.3,0,0.5-0.1c0.2,0,0.3-0.1,0.5-0.2c0.1-0.1,0.2-0.2,0.3-0.3C74,7.4,74,7.3,74,7.1c0-0.3-0.1-0.5-0.3-0.7
	c-0.2-0.2-0.5-0.3-0.8-0.4c-0.3-0.1-0.7-0.2-1-0.3c-0.4-0.1-0.7-0.3-1-0.5c-0.3-0.2-0.6-0.4-0.8-0.8c-0.2-0.3-0.3-0.7-0.3-1.2
	c0-0.5,0.1-0.9,0.3-1.3c0.2-0.4,0.5-0.7,0.8-0.9c0.3-0.3,0.7-0.4,1.1-0.6c0.4-0.1,0.9-0.2,1.3-0.2c0.5,0,1,0.1,1.5,0.2
	c0.5,0.1,0.9,0.4,1.3,0.7L74.6,2.8z M80.5,2.3h-2.6V0.5h7.3v1.8h-2.6v7.4h-2V2.3z M78.2,16.5h2v9.2h-2V16.5z M82.6,21.1
	c0-0.7,0.1-1.4,0.4-2c0.2-0.6,0.6-1.1,1-1.5c0.4-0.4,1-0.7,1.6-1c0.6-0.2,1.3-0.3,2-0.3c0.7,0,1.4,0.1,2,0.3c0.6,0.2,1.1,0.5,1.6,1
	c0.4,0.4,0.8,0.9,1,1.5c0.2,0.6,0.4,1.3,0.4,2c0,0.7-0.1,1.4-0.4,2c-0.2,0.6-0.6,1.1-1,1.5c-0.4,0.4-1,0.7-1.6,1
	c-0.6,0.2-1.3,0.3-2,0.3c-0.7,0-1.4-0.1-2-0.3c-0.6-0.2-1.1-0.5-1.6-1c-0.4-0.4-0.8-0.9-1-1.5C82.8,22.5,82.6,21.9,82.6,21.1z
	 M84.7,21.1c0,0.4,0.1,0.8,0.2,1.2c0.1,0.4,0.3,0.7,0.6,0.9c0.3,0.3,0.6,0.5,0.9,0.6c0.4,0.1,0.7,0.2,1.2,0.2c0.4,0,0.8-0.1,1.2-0.2
	c0.4-0.1,0.7-0.4,0.9-0.6c0.3-0.3,0.4-0.6,0.6-0.9c0.1-0.4,0.2-0.8,0.2-1.2c0-0.4-0.1-0.8-0.2-1.2c-0.1-0.4-0.3-0.7-0.6-0.9
	c-0.3-0.3-0.6-0.5-0.9-0.6c-0.4-0.1-0.7-0.2-1.2-0.2c-0.4,0-0.8,0.1-1.2,0.2c-0.4,0.1-0.7,0.4-0.9,0.6c-0.3,0.3-0.4,0.6-0.6,0.9
	C84.8,20.3,84.7,20.7,84.7,21.1z M95,16.5h2.8l3.9,6.4h0v-6.4h2v9.2h-2.7l-4-6.6h0v6.6h-2V16.5z"/>
<polygon fill-rule="evenodd" clip-rule="evenodd" fill="#FFFFFF" points="67,35.7 51.5,51.4 36,35.7 36,38 51.5,53.7 67,38 "/>
<polygon fill-rule="evenodd" clip-rule="evenodd" fill="#FFFFFF" points="67,42.7 51.5,58.4 36,42.7 36,45 51.5,60.7 67,45 "/>
</svg>
