<?xml version="1.0" encoding="utf-8"?>
<!-- Generator: Adobe Illustrator 16.0.0, SVG Export Plug-In . SVG Version: 6.00 Build 0)  -->
<!DOCTYPE svg PUBLIC "-//W3C//DTD SVG 1.0//EN" "http://www.w3.org/TR/2001/REC-SVG-20010904/DTD/svg10.dtd">
<svg version="1.0" id="Layer_1" xmlns="http://www.w3.org/2000/svg" xmlns:xlink="http://www.w3.org/1999/xlink" x="0px" y="0px"
	 width="29px" height="31px" viewBox="0 0 29 31" enable-background="new 0 0 29 31" xml:space="preserve">
<path fill="#747474" d="M26.486,11.475v10.44H2.33v-10.44H0V8.369L14.236,0l14.409,8.197v3.278H26.486z M14.322,3.279L5.177,8.628
	v10.526h18.378V8.628L14.322,3.279z M9.577,13.977v2.675h9.577v-2.675H9.577z M9.577,10.008v2.675h9.577v-2.675H9.577z
	 M0.908,26.057H2.32v-0.603H1.541v-0.61H2.32V24.27H1.541v-0.604H2.32V23.09H0.908V26.057z M3.94,25.307l0.366-0.457l0.145,0.162
	c0.056-0.14,0.083-0.287,0.083-0.438c0-0.521-0.284-0.877-0.676-0.877c-0.393,0-0.673,0.357-0.673,0.877
	c0,0.523,0.28,0.877,0.693,0.877c0.056,0,0.109-0.012,0.159-0.031L3.94,25.307z M3.861,26.114c-0.373,0-0.703-0.151-0.943-0.435
	c-0.245-0.289-0.373-0.669-0.373-1.106c0-0.439,0.128-0.819,0.373-1.107c0.241-0.282,0.567-0.435,0.943-0.435s0.7,0.146,0.944,0.435
	c0.244,0.288,0.373,0.668,0.373,1.107c0,0.368-0.089,0.679-0.264,0.95l0.201,0.233L4.749,26.23l-0.254-0.291
	C4.297,26.061,4.092,26.114,3.861,26.114z M6.046,23.09H5.409v1.902c0,0.699,0.383,1.122,1.026,1.122
	c0.647,0,1.026-0.423,1.026-1.122V23.09H6.828v1.643c0,0.49-0.103,0.727-0.393,0.727c-0.287,0-0.389-0.236-0.389-0.727V23.09z
	 M9.138,25.066l-0.34-1.375l-0.34,1.375H9.138z M8.409,23.09h0.782l0.865,2.967h-0.67l-0.103-0.432h-0.97l-0.102,0.432H7.544
	L8.409,23.09z M10.148,26.057h1.271v-0.603h-0.637V23.09h-0.634V26.057z M12.396,26.057h0.633v-1.205h0.806v1.205h0.633V23.09
	h-0.633v1.161h-0.806V23.09h-0.633V26.057z M16.706,24.573c0-0.521-0.281-0.878-0.673-0.878c-0.393,0-0.678,0.357-0.678,0.878
	c0,0.52,0.287,0.877,0.678,0.877C16.425,25.451,16.706,25.093,16.706,24.573z M16.977,23.47c0.244,0.284,0.373,0.664,0.373,1.104
	c0,0.438-0.129,0.815-0.373,1.103s-0.567,0.438-0.944,0.438c-0.373,0-0.7-0.151-0.944-0.438c-0.244-0.287-0.373-0.664-0.373-1.103
	c0-0.439,0.129-0.819,0.37-1.104c0.248-0.29,0.571-0.438,0.947-0.438C16.412,23.032,16.729,23.18,16.977,23.47z M18.217,23.09H17.58
	v1.902c0,0.699,0.383,1.122,1.025,1.122c0.647,0,1.026-0.423,1.026-1.122V23.09h-0.634v1.643c0,0.49-0.102,0.727-0.393,0.727
	c-0.287,0-0.391-0.236-0.391-0.727V23.09H18.217z M20.458,25.193h-0.584c0.013,0.572,0.343,0.925,0.878,0.925
	c0.574,0,0.932-0.388,0.932-0.955c0-0.222-0.057-0.399-0.168-0.543c-0.156-0.198-0.348-0.265-0.549-0.354
	c-0.316-0.14-0.492-0.182-0.492-0.392c0-0.167,0.109-0.279,0.287-0.279c0.182,0,0.291,0.128,0.295,0.349h0.573
	c-0.007-0.59-0.317-0.911-0.881-0.911c-0.521,0-0.854,0.376-0.854,0.899c0,0.28,0.092,0.51,0.26,0.656
	c0.172,0.151,0.351,0.21,0.516,0.28c0.264,0.112,0.413,0.194,0.413,0.373c0,0.163-0.112,0.272-0.308,0.272
	C20.583,25.514,20.464,25.393,20.458,25.193z M21.923,26.057h0.64V23.09h-0.64V26.057z M22.934,26.057h0.627V24.62
	c0-0.194-0.023-0.376-0.069-0.547c0.083,0.209,0.155,0.364,0.214,0.47l0.861,1.514h0.623V23.09h-0.623v1.378
	c0,0.202,0.02,0.404,0.06,0.613c-0.063-0.171-0.14-0.338-0.226-0.497l-0.812-1.495h-0.657v2.968H22.934z M27.302,24.033l0.466-0.479
	c-0.265-0.349-0.602-0.523-1.014-0.523c-0.376,0-0.699,0.146-0.943,0.435s-0.373,0.668-0.373,1.107c0,0.438,0.129,0.819,0.373,1.103
	s0.567,0.438,0.943,0.438c0.499,0,0.868-0.241,1.145-0.749c0.09-0.163,0.172-0.475,0.172-0.812c0-0.054-0.006-0.113-0.01-0.179
	h-1.307v0.567h0.653c-0.109,0.326-0.347,0.509-0.653,0.509c-0.393,0-0.677-0.357-0.677-0.877c0-0.521,0.284-0.878,0.677-0.878
	C26.984,23.695,27.177,23.812,27.302,24.033z M2.78,28.523c0-0.646-0.349-1.092-0.838-1.092c-0.489,0-0.842,0.445-0.842,1.092
	c0,0.647,0.357,1.093,0.842,1.093C2.431,29.616,2.78,29.172,2.78,28.523z M3.117,27.152c0.304,0.353,0.464,0.826,0.464,1.371
	c0,0.547-0.16,1.016-0.464,1.373c-0.304,0.357-0.707,0.545-1.175,0.545c-0.464,0-0.871-0.188-1.174-0.545
	c-0.304-0.357-0.464-0.826-0.464-1.373c0-0.545,0.16-1.02,0.46-1.371c0.308-0.362,0.71-0.547,1.179-0.547
	C2.414,26.605,2.809,26.79,3.117,27.152z M4.796,28.418c0.308,0,0.477-0.188,0.477-0.518c0-0.342-0.161-0.502-0.493-0.502H4.677
	v1.02H4.796z M3.889,26.68h1.097c0.665,0,1.084,0.482,1.084,1.231c0,0.812-0.382,1.256-1.121,1.256H4.677v1.203H3.889V26.68z
	 M7.232,28.418c0.308,0,0.476-0.188,0.476-0.518c0-0.342-0.16-0.502-0.493-0.502H7.113v1.02H7.232z M6.324,26.68H7.42
	c0.666,0,1.084,0.482,1.084,1.231c0,0.812-0.382,1.256-1.121,1.256h-0.27v1.203H6.324V26.68z M11.084,28.523
	c0-0.646-0.349-1.092-0.838-1.092c-0.489,0-0.842,0.444-0.842,1.092c0,0.648,0.357,1.093,0.842,1.093
	C10.735,29.616,11.084,29.172,11.084,28.523z M11.421,27.152c0.304,0.353,0.464,0.826,0.464,1.371c0,0.547-0.16,1.016-0.464,1.373
	c-0.304,0.357-0.707,0.545-1.175,0.545c-0.464,0-0.871-0.188-1.174-0.545c-0.304-0.357-0.464-0.826-0.464-1.373
	c0-0.545,0.16-1.02,0.46-1.371c0.308-0.362,0.71-0.547,1.179-0.547C10.718,26.605,11.113,26.79,11.421,27.152z M12.981,27.398v1.02
	h0.234c0.304,0,0.473-0.188,0.473-0.518c0-0.342-0.161-0.502-0.493-0.502H12.981z M12.193,26.68h1.15
	c0.727,0,1.146,0.482,1.146,1.184c0,0.57-0.267,0.947-0.694,0.996l0.821,1.512h-0.949l-0.686-1.57v1.57h-0.789L12.193,26.68
	L12.193,26.68z M15.24,30.37h0.789v-2.942h0.705V26.68H14.53v0.748h0.71V30.37z M17.654,26.68h-0.791v2.367
	c0,0.87,0.477,1.396,1.277,1.396c0.805,0,1.276-0.526,1.276-1.396V26.68h-0.789v2.043c0,0.609-0.127,0.903-0.489,0.903
	c-0.356,0-0.484-0.294-0.484-0.903V26.68L17.654,26.68z M19.859,30.37h0.781v-1.788c0-0.242-0.029-0.469-0.086-0.682
	c0.103,0.261,0.192,0.455,0.266,0.584l1.072,1.885h0.776v-3.691h-0.776v1.715c0,0.252,0.025,0.502,0.074,0.764
	c-0.078-0.213-0.173-0.42-0.279-0.618l-1.01-1.86h-0.818V30.37z M23.129,30.37h0.797v-3.69h-0.797V30.37z M24.779,30.37h0.789
	v-2.942h0.707V26.68H24.07v0.748h0.709V30.37z M26.994,30.37h0.792v-1.662l0.993-2.028h-0.887l-0.406,1.01
	c-0.024,0.058-0.059,0.154-0.094,0.279c-0.037-0.125-0.074-0.222-0.1-0.279l-0.406-1.01H26l0.994,2.028V30.37z"/>
</svg>
